<svg height="512pt" viewBox="0 -26 512.00003 512" width="512pt" xmlns="http://www.w3.org/2000/svg"><path d="m76.800781 264.535156h-25.601562c-4.710938 0-8.53125 3.820313-8.53125 8.53125 0 4.714844 3.820312 8.535156 8.53125 8.535156h25.601562c4.710938 0 8.53125-3.820312 8.53125-8.535156 0-4.710937-3.820312-8.53125-8.53125-8.53125zm0 0"/><path d="m51.199219 213.332031h93.867187c4.714844 0 8.535156-3.820312 8.535156-8.53125 0-4.714843-3.820312-8.535156-8.535156-8.535156h-93.867187c-4.710938 0-8.53125 3.820313-8.53125 8.535156 0 4.710938 3.820312 8.53125 8.53125 8.53125zm0 0"/><path d="m179.199219 213.332031h119.46875c4.710937 0 8.53125-3.820312 8.53125-8.53125 0-4.714843-3.820313-8.535156-8.53125-8.535156h-119.46875c-4.710938 0-8.53125 3.820313-8.53125 8.535156 0 4.710938 3.820312 8.53125 8.53125 8.53125zm0 0"/><path d="m110.933594 230.398438h-59.734375c-4.710938 0-8.53125 3.820312-8.53125 8.535156 0 4.710937 3.820312 8.53125 8.53125 8.53125h59.734375c4.710937 0 8.53125-3.820313 8.53125-8.53125 0-4.714844-3.820313-8.535156-8.53125-8.535156zm0 0"/><path d="m273.066406 230.398438h-128c-4.710937 0-8.53125 3.820312-8.53125 8.535156 0 4.710937 3.820313 8.53125 8.53125 8.53125h128c4.714844 0 8.535156-3.820313 8.535156-8.53125 0-4.714844-3.820312-8.535156-8.535156-8.535156zm0 0"/><path d="m366.933594 341.332031h59.734375c4.710937 0 8.53125-3.820312 8.53125-8.53125 0-4.714843-3.820313-8.535156-8.53125-8.535156h-59.734375c-4.714844 0-8.535156 3.820313-8.535156 8.535156 0 4.710938 3.820312 8.53125 8.535156 8.53125zm0 0"/><path d="m469.332031 324.265625h-8.53125c-4.714843 0-8.535156 3.820313-8.535156 8.535156 0 4.710938 3.820313 8.53125 8.535156 8.53125h8.53125c4.714844 0 8.535157-3.820312 8.535157-8.53125 0-4.714843-3.820313-8.535156-8.535157-8.535156zm0 0"/><path d="m375.464844 358.398438h-8.53125c-4.714844 0-8.535156 3.820312-8.535156 8.535156 0 4.710937 3.820312 8.53125 8.535156 8.53125h8.53125c4.714844 0 8.535156-3.820313 8.535156-8.53125 0-4.714844-3.820312-8.535156-8.535156-8.535156zm0 0"/><path d="m469.332031 358.398438h-59.730469c-4.714843 0-8.535156 3.820312-8.535156 8.535156 0 4.710937 3.820313 8.53125 8.535156 8.53125h59.730469c4.714844 0 8.535157-3.820313 8.535157-8.53125 0-4.714844-3.820313-8.535156-8.535157-8.535156zm0 0"/><path d="m51.199219 179.199219h85.335937c9.425782 0 17.066406-7.640625 17.066406-17.066407v-102.398437c0-9.425781-7.640624-17.066406-17.066406-17.066406h-85.335937c-9.425781 0-17.066407 7.640625-17.066407 17.066406v102.398437c0 9.425782 7.640626 17.066407 17.066407 17.066407zm0-119.464844h85.335937v102.398437h-85.335937zm0 0"/><path d="m460.800781 204.800781h-85.335937c-9.425782 0-17.066406 7.640625-17.066406 17.066407v68.265624c0 9.425782 7.640624 17.066407 17.066406 17.066407h85.335937c9.425781 0 17.066407-7.640625 17.066407-17.066407v-68.265624c0-9.425782-7.640626-17.066407-17.066407-17.066407zm-85.335937 85.332031v-68.265624h85.335937v68.265624zm0 0"/><path d="m196.265625 179.199219h85.335937c9.425782 0 17.066407-7.640625 17.066407-17.066407v-102.398437c0-9.425781-7.640625-17.066406-17.066407-17.066406h-85.335937c-9.425781 0-17.066406 7.640625-17.066406 17.066406v102.398437c0 9.425782 7.640625 17.066407 17.066406 17.066407zm0-119.464844h85.335937v102.398437h-85.335937zm0 0"/><path d="m477.867188 119.464844v-76.796875c-.027344-23.554688-19.113282-42.6406252-42.667969-42.667969h-392.53125c-23.554688.0273438-42.6406252 19.113281-42.667969 42.667969v307.199219c.0273438 23.550781 19.113281 42.636718 42.667969 42.667968h136.53125v17.066406h-34.132813c-18.851562 0-34.132812 15.28125-34.132812 34.132813v8.53125c0 4.714844 3.820312 8.535156 8.53125 8.535156h358.402344c18.851562 0 34.132812-15.28125 34.132812-34.132812v-273.066407c0-18.851562-15.28125-34.136718-34.132812-34.136718zm-153.601563 273.070312v17.066406h-25.597656v-17.066406zm102.402344-273.070312h-68.269531c-6.007813.039062-11.898438 1.675781-17.066407 4.746094v-64.476563h85.335938zm-85.335938 68.269531h153.601563v204.800781h-153.601563zm153.601563-34.132813v17.066407h-153.601563v-17.066407c0-9.425781 7.640625-17.066406 17.066407-17.066406h119.46875c9.425781 0 17.066406 7.640625 17.066406 17.066406zm-452.265625-136.535156h392.53125c14.140625 0 25.601562 11.460938 25.601562 25.601563v76.796875h-17.066406v-59.730469c0-9.425781-7.640625-17.066406-17.066406-17.066406h-85.335938c-9.425781 0-17.066406 7.640625-17.066406 17.066406v170.664063h-17.066406c-4.710938 0-8.53125 3.820312-8.53125 8.535156 0 4.710937 3.820312 8.53125 8.53125 8.53125h17.066406v17.070312h-213.332031c-4.714844 0-8.535156 3.820313-8.535156 8.53125 0 4.714844 3.820312 8.535156 8.535156 8.535156h213.332031v25.597657h-307.199219v-264.53125c0-14.140625 11.460938-25.601563 25.601563-25.601563zm-25.601563 332.800782v-25.601563h307.199219v51.199219h-281.597656c-14.140625 0-25.601563-11.460938-25.601563-25.597656zm179.199219 42.667968h85.335937v17.066406h-85.335937zm-51.199219 34.132813h179.199219c.035156 6.007812 1.675781 11.898437 4.746094 17.066406h-201.011719c0-9.425781 7.640625-17.066406 17.066406-17.066406zm332.800782 17.066406h-51.199219v-8.535156c0-4.710938-3.820313-8.53125-8.535157-8.53125-4.710937 0-8.53125 3.820312-8.53125 8.53125v8.535156h-51.203124c-9.425782 0-17.066407-7.640625-17.066407-17.066406v-17.066407h153.601563v17.066407c0 9.425781-7.640625 17.066406-17.066406 17.066406zm0 0"/></svg>